<svg xmlns="http://www.w3.org/2000/svg" version="1.1" xmlns:xlink="http://www.w3.org/1999/xlink" xmlns:svgjs="http://svgjs.dev/svgjs" width="1500" height="1500" viewBox="0 0 1500 1500"><rect width="1500" height="1500" fill="#ffffff"></rect><g transform="matrix(0.6666666666666666,0,0,0.6666666666666666,250.03946381674814,250.03946381674825)"><svg viewBox="0 0 334 334" data-background-color="#4ea9f3" preserveAspectRatio="xMidYMid meet" height="1500" width="1500" xmlns="http://www.w3.org/2000/svg" xmlns:xlink="http://www.w3.org/1999/xlink"><g id="tight-bounds" transform="matrix(1,0,0,1,-0.013180914793878173,-0.013180914793906595)"><svg viewBox="0 0 334.02636182958776 334.02636182958776" height="334.02636182958776" width="334.02636182958776"><g><svg></svg></g><g><svg viewBox="0 0 334.02636182958776 334.02636182958776" height="334.02636182958776" width="334.02636182958776"><g><path d="M0 167.013c0-92.239 74.774-167.013 167.013-167.013 92.239 0 167.013 74.774 167.013 167.013 0 92.239-74.774 167.013-167.013 167.013-92.239 0-167.013-74.774-167.013-167.013zM167.013 327.428c88.595 0 160.415-71.82 160.415-160.415 0-88.595-71.82-160.415-160.415-160.415-88.595 0-160.415 71.82-160.415 160.415 0 88.595 71.82 160.415 160.415 160.415z" data-fill-palette-color="tertiary" fill="#000000" stroke="transparent"></path><ellipse rx="160.33265367820212" ry="160.33265367820212" cx="167.01318091479388" cy="167.01318091479388" fill="#000000" stroke="transparent" stroke-width="0" fill-opacity="1" data-fill-palette-color="tertiary"></ellipse></g><g transform="matrix(1,0,0,1,63.55413851296899,71.23396030121532)"><svg viewBox="0 0 206.91808480364978 191.55844122715712" height="191.55844122715712" width="206.91808480364978"><g><svg viewBox="0 0 206.91808480364978 191.55844122715712" height="191.55844122715712" width="206.91808480364978"><g><svg viewBox="0 0 213.1584412271571 197.33557255100095" height="191.55844122715712" width="206.91808480364978"><g transform="matrix(1,0,0,1,0,121.96130054705571)"><svg viewBox="0 0 213.1584412271571 75.37427200394524" height="75.37427200394524" width="213.1584412271571"><g id="textblocktransform"><svg viewBox="0 0 213.1584412271571 75.37427200394524" height="75.37427200394524" width="213.1584412271571" id="textblock"><g><svg viewBox="0 0 213.1584412271571 75.37427200394524" height="75.37427200394524" width="213.1584412271571"><g transform="matrix(1,0,0,1,0,0)"><svg width="213.1584412271571" viewBox="0.5 -38.5 141.39 50" height="75.37427200394524" data-palette-color="#4ea9f3"><path d="M27-35L27-30.1 17.1-30.1Q17-27.75 17-24.83 17-21.9 17-17.8L17-17.8Q17-14.8 17-12.38 17-9.95 17.03-7.85 17.05-5.75 17.07-3.85 17.1-1.95 17.15 0L17.15 0 10.1 0Q10.15-2.4 10.23-4.23 10.3-6.05 10.35-8.03 10.4-10 10.45-12.55 10.5-15.1 10.5-18.95L10.5-18.95Q10.5-21.75 10.5-24.5 10.5-27.25 10.4-30.1L10.4-30.1 0.5-30.1 0.5-35 27-35ZM30.5-38L37.35-38.5Q37.2-36.85 37.12-35.13 37.05-33.4 37.02-31.35 37-29.3 36.97-26.85 36.95-24.4 36.95-21.3L36.95-21.3Q37.7-22.1 38.6-22.88 39.5-23.65 40.52-24.25 41.55-24.85 42.7-25.23 43.85-25.6 45.1-25.6L45.1-25.6Q46.35-25.6 47.52-25.15 48.7-24.7 49.6-23.65 50.5-22.6 51.05-20.8 51.6-19 51.6-16.3L51.6-16.3Q51.6-15.6 51.57-14.25 51.55-12.9 51.5-11.38 51.45-9.85 51.42-8.45 51.4-7.05 51.4-6.3L51.4-6.3Q51.4-4.65 51.62-3.13 51.85-1.6 52.4-0.6L52.4-0.6 45.45 0.6Q45.1-0.55 45.02-1.9 44.95-3.25 44.95-4.25L44.95-4.25Q44.95-5.65 45.02-7.13 45.1-8.6 45.17-9.98 45.25-11.35 45.32-12.58 45.4-13.8 45.4-14.7L45.4-14.7Q45.4-17.65 44.4-18.75 43.4-19.85 41.65-19.85L41.65-19.85Q40.2-19.85 39.02-19.38 37.85-18.9 36.95-18.2L36.95-18.2Q36.95-15.25 36.95-12.8 36.95-10.35 36.97-8.18 37-6 37.02-4 37.05-2 37.1 0L37.1 0 30.35 0Q30.4-2.6 30.47-4.6 30.55-6.6 30.6-8.78 30.65-10.95 30.7-13.73 30.75-16.5 30.75-20.7L30.75-20.7Q30.75-24.95 30.7-29.23 30.65-33.5 30.5-38L30.5-38ZM75.09-11.3L62.4-11.3Q62.65-7.5 63.95-5.98 65.25-4.45 67.9-4.45L67.9-4.45Q69.9-4.45 71.67-5.05 73.45-5.65 74.59-6.15L74.59-6.15 74.59-2Q73-0.55 70.59 0.03 68.2 0.6 65.95 0.6L65.95 0.6Q64.09 0.6 62.3 0.15 60.5-0.3 59.07-1.58 57.65-2.85 56.77-5.13 55.9-7.4 55.9-11.1L55.9-11.1Q55.9-14.75 56.8-17.48 57.7-20.2 59.27-22 60.85-23.8 62.97-24.7 65.09-25.6 67.59-25.6L67.59-25.6Q70.15-25.6 71.77-24.73 73.4-23.85 74.32-22.5 75.25-21.15 75.57-19.5 75.9-17.85 75.9-16.3L75.9-16.3Q75.9-14.7 75.67-13.4 75.45-12.1 75.09-11.3L75.09-11.3ZM66.7-21.95L66.7-21.95Q64.75-21.95 63.67-20.28 62.6-18.6 62.4-15L62.4-15 70.65-15Q70.65-15.2 70.67-15.5 70.7-15.8 70.7-16.05L70.7-16.05Q70.7-16.85 70.55-17.88 70.4-18.9 69.95-19.8 69.5-20.7 68.72-21.33 67.95-21.95 66.7-21.95ZM80.89-34.5L80.89-34.5Q83.14-34.9 85.97-35.23 88.79-35.55 91.44-35.55L91.44-35.55Q95.69-35.55 98.42-34.65 101.14-33.75 102.69-32.33 104.24-30.9 104.82-29.13 105.39-27.35 105.39-25.6L105.39-25.6Q105.39-22.45 103.97-20.13 102.54-17.8 99.94-16.45L99.94-16.45Q101.49-15.7 102.52-14.73 103.54-13.75 104.14-12.35 104.74-10.95 104.97-9.03 105.19-7.1 105.19-4.55L105.19-4.55Q105.19-2.5 105.04 0L105.04 0 98.09 0.6Q98.24-1.05 98.34-2.55 98.44-4.05 98.44-5.4L98.44-5.4Q98.44-7.6 98.09-9.25 97.74-10.9 96.84-12.03 95.94-13.15 94.42-13.7 92.89-14.25 90.49-14.25L90.49-14.25Q89.94-14.25 89.19-14.23 88.44-14.2 87.64-14.1L87.64-14.1Q87.64-9.95 87.67-6.6 87.69-3.25 87.79 0L87.79 0 80.74 0Q80.84-2.4 80.92-4.23 80.99-6.05 81.04-8.03 81.09-10 81.12-12.45 81.14-14.9 81.14-18.55L81.14-18.55Q81.14-22.75 81.09-26.6 81.04-30.45 80.89-34.5ZM92.09-31.1L92.09-31.1Q91.09-31.1 89.99-30.93 88.89-30.75 87.74-30.45L87.74-30.45Q87.64-28.35 87.64-25.73 87.64-23.1 87.64-19.4L87.64-19.4 87.64-18.75Q89.04-18.45 90.89-18.45L90.89-18.45Q94.64-18.45 96.72-20.08 98.79-21.7 98.79-24.85L98.79-24.85Q98.79-27.75 97.02-29.43 95.24-31.1 92.09-31.1ZM116.04 0.6L116.04 0.6Q112.89 0.6 110.97-1.55 109.04-3.7 109.04-7.15L109.04-7.15Q109.04-10.75 111.14-12.9 113.24-15.05 116.74-15.05L116.74-15.05Q118.19-15.05 119.64-14.65 121.09-14.25 122.24-13.5L122.24-13.5 122.24-16.3Q122.24-18.65 121.34-19.6 120.44-20.55 118.24-20.55L118.24-20.55Q116.74-20.55 115.07-20.18 113.39-19.8 112.39-19.25L112.39-19.25 110.84-24.05Q111.59-24.35 112.64-24.65 113.69-24.95 114.89-25.15 116.09-25.35 117.34-25.48 118.59-25.6 119.64-25.6L119.64-25.6Q128.44-25.6 128.44-17L128.44-17Q128.44-16.25 128.37-14.8 128.29-13.35 128.22-11.78 128.14-10.2 128.07-8.85 127.99-7.5 127.99-6.95L127.99-6.95Q127.99-5.8 128.34-5.3 128.69-4.8 129.64-4.8L129.64-4.8Q130.29-4.8 131.14-5L131.14-5 130.34-0.2Q129.54 0.05 128.87 0.2 128.19 0.35 127.49 0.35L127.49 0.35Q125.64 0.35 124.39-0.68 123.14-1.7 122.89-3.6L122.89-3.6Q121.89-1.65 120.09-0.53 118.29 0.6 116.04 0.6ZM118.44-4L118.44-4Q120.04-4 121.17-5.15 122.29-6.3 122.29-8.05L122.29-8.05Q122.29-9.55 121.39-10.45 120.49-11.35 118.89-11.35L118.89-11.35Q117.24-11.35 116.29-10.35 115.34-9.35 115.34-7.6L115.34-7.6Q115.34-5.95 116.17-4.98 116.99-4 118.44-4ZM135.04 0.2L135.04-14.7Q135.04-17.4 134.99-19.78 134.94-22.15 134.79-25L134.79-25 141.64-25Q141.39-22.7 141.31-20.43 141.24-18.15 141.24-16.55L141.24-16.55Q141.24-15.4 141.21-13.25 141.19-11.1 141.16-8.6 141.14-6.1 141.06-3.53 140.99-0.95 140.89 1L140.89 1Q140.69 4.2 140.26 5.95 139.84 7.7 138.99 8.85L138.99 8.85Q137.89 10.35 136.26 10.93 134.64 11.5 133.19 11.5L133.19 11.5Q132.04 11.5 130.66 11.2 129.29 10.9 128.44 10.5L128.44 10.5 129.89 5.3Q130.39 5.6 131.14 5.78 131.89 5.95 132.49 5.95L132.49 5.95Q133.79 5.95 134.41 4.75 135.04 3.55 135.04 0.2L135.04 0.2ZM134.64-33.15L134.64-33.15Q134.64-34.55 135.61-35.58 136.59-36.6 138.29-36.6L138.29-36.6Q139.74-36.6 140.81-35.75 141.89-34.9 141.89-33.45L141.89-33.45Q141.89-32.05 140.86-31.1 139.84-30.15 138.14-30.15L138.14-30.15Q136.69-30.15 135.66-30.93 134.64-31.7 134.64-33.15Z" opacity="1" transform="matrix(1,0,0,1,0,0)" fill="#ffffff" class="wordmark-text-0" data-fill-palette-color="quaternary" id="text-0"></path></svg></g></svg></g></svg></g></svg></g><g transform="matrix(1,0,0,1,58.8359004884129,0)"><svg viewBox="0 0 95.4866402503313 104.16724390945234" height="104.16724390945234" width="95.4866402503313"><g><svg xmlns="http://www.w3.org/2000/svg" xmlns:xlink="http://www.w3.org/1999/xlink" version="1.1" x="0" y="0" viewBox="4 0 88 96" enable-background="new 0 0 96 96" xml:space="preserve" height="104.16724390945234" width="95.4866402503313" class="icon-icon-0" data-fill-palette-color="quaternary" id="icon-0"><path d="M85.688 28.94c-0.359-0.584-1-0.94-1.695-0.94h-20v-8h10c1.104 0 2-0.9 2-2V2c0-1.1-0.896-2-2-2h-52c-1.104 0-2 0.9-2 2v16c0 1.1 0.896 2 2 2h10v8h-20.12c-0.692 0-1.336 0.36-1.7 0.948L4 38.952V48c0 3.252 1.832 6 4 6 3.308 0 6-2.691 6-6 0-1.1 0.896-2 2-2s2 0.9 2 2c0 3.309 2.692 6 6 6s6-2.691 6-6c0-1.1 0.896-2 2-2s2 0.9 2 2c0 3.309 2.692 6 6 6s6-2.691 6-6c0-1.1 0.896-2 2-2 1.104 0 2 0.9 2 2 0 3.309 2.691 6 6 6s6-2.691 6-6c0-1.1 0.9-2 2-2s2 0.9 2 2c0 3.309 2.691 6 6 6s6-2.691 6-6c0-1.1 0.9-2 2-2s2 0.9 2 2c0 2.764 1.309 6 5 6s5-3.236 5-6v-8.968L85.688 28.94zM35.996 28v-8h24v8H35.996z" fill="#ffffff" data-fill-palette-color="quaternary"></path><path d="M19.996 84h56V56.78c-1.232 0.588-2.572 0.979-4 0.979-3.264 0-6.172-1.455-8-3.888-1.828 2.424-4.732 4.067-8 4.067-3.264 0-6.168-1.543-8-3.976-1.828 2.433-4.732 4.021-8 4.021s-6.172-1.568-8-4c-1.828 2.432-4.732 4.008-8 4.008-1.428 0-2.768-0.344-4-0.885V84z" fill="#ffffff" data-fill-palette-color="quaternary"></path><path d="M79.992 54.044V86c0 1.1-0.896 2-2 2h-60c-1.104 0-2-0.9-2-2V53.992C14.164 56.42 11.26 58 7.992 58v36c0 1.1 0.896 2 2 2h76c1.104 0 2-0.9 2-2 0 0 0-30.813 0-35.688C85.016 58.313 81.656 56.275 79.992 54.044z" fill="#ffffff" data-fill-palette-color="quaternary"></path></svg></g></svg></g><g></g></svg></g></svg></g></svg></g></svg></g><defs></defs></svg><rect width="334.02636182958776" height="334.02636182958776" fill="none" stroke="none" visibility="hidden"></rect></g></svg></g></svg>